<?xml version="1.0" encoding="UTF-8"?>
<svg id="Camada_2" data-name="Camada 2" xmlns="http://www.w3.org/2000/svg" viewBox="0 0 1462.71 434.86">
  <defs>
    <style>
      .cls-1 {
        fill: #b09554;
      }

      .cls-2 {
        fill: #fff;
      }
    </style>
  </defs>
  <g id="Camada_1-2" data-name="Camada 1">
    <g>
      <g>
        <path class="cls-2" d="M497.9,230.93c7.88-.87,13-2.33,15.33-4.39,2.34-2.06,3.51-7.27,3.51-15.65v-99.2c0-7.91-1.15-13.08-3.45-15.52-2.3-2.43-7.43-3.94-15.39-4.52v-4.14h60.5v4.14c-7.89.44-13.17,1.78-15.86,4.03-2.69,2.25-4.03,7.08-4.03,14.48v107.14c0,2.47.4,4.41,1.21,5.83.8,1.42,2.57,2.3,5.29,2.67,1.61.22,3.3.36,5.08.44,1.78.07,5.12.11,10.01.11,19.07,0,31.96-1.63,38.67-4.9,6.71-3.27,13.21-11.61,19.49-25.04h5.45l-10.48,38.65h-115.34v-4.14Z"/>
        <path class="cls-2" d="M652.46,104.08c13.19-13.14,29.41-19.71,48.67-19.71s35.59,6.61,48.78,19.82c14.3,14.3,21.46,33.36,21.46,57.17s-7.4,43.41-22.19,57.71c-13.26,12.78-29.27,19.16-48.04,19.16-20.1,0-36.78-7.08-50.03-21.23-13.47-14.44-20.2-32.99-20.2-55.64,0-23.81,7.19-42.9,21.56-57.27ZM668.49,213.35c8.87,11.21,19.77,16.82,32.69,16.82s23.45-5.46,32.43-16.39c8.98-10.92,13.47-28.4,13.47-52.43s-4.54-41.88-13.62-52.7c-9.08-10.82-19.84-16.22-32.27-16.22s-23.74,5.61-32.64,16.82c-8.91,11.21-13.36,28.58-13.36,52.1s4.44,40.78,13.31,51.99Z"/>
        <path class="cls-2" d="M779.8,230.93c8.23-.79,13.36-2.46,15.39-4.99,2.02-2.53,3.04-8.41,3.04-17.66v-96.58c0-7.84-1.13-12.97-3.4-15.41-2.27-2.43-7.27-3.97-15.02-4.63v-4.14h59.35c12.35,0,22.64,1.63,30.88,4.89,15.63,6.16,23.45,17.5,23.45,34.03,0,11.09-3.47,19.61-10.42,25.55-6.94,5.94-16.38,9.86-28.31,11.74l44.17,56.6c2.72,3.46,5.44,5.98,8.16,7.56,2.72,1.58,6.21,2.59,10.47,3.02v4.14h-34.53l-53.62-68.71-9.41.54v43.95c0,8.25,1.2,13.47,3.61,15.68,2.41,2.21,7.66,3.67,15.75,4.39v4.14h-59.56v-4.14ZM853.07,153.63c11.37-4.85,17.06-13.98,17.06-27.39s-5.09-21.7-15.28-26.41c-5.44-2.54-12.67-3.8-21.67-3.8-6.07,0-9.79.46-11.15,1.36-1.36.91-2.04,3.03-2.04,6.36v54.89c15.42-.58,26.45-2.25,33.08-5.01Z"/>
        <path class="cls-2" d="M961.88,87.53v3.81c-5.36.08-9.02.44-10.97,1.11-3.42,1.18-5.13,3.58-5.13,7.19,0,1.84.61,4.42,1.83,7.74,1.22,3.32,3.49,8.82,6.82,16.52l33.56,77.63,30.46-84.04c1.34-3.72,2.37-6.86,3.06-9.45.7-2.58,1.05-4.68,1.05-6.31,0-4.35-1.78-7.3-5.33-8.85-2.09-.88-5.54-1.4-10.34-1.55v-3.81h43.85v3.81c-4.54.65-7.89,1.92-10.05,3.81-3.28,2.83-6.53,8.53-9.73,17.1l-47.47,125.43h-3.23l-52.98-122.57c-4.47-10.4-8.04-16.87-10.73-19.41-2.69-2.54-6.61-4-11.78-4.36v-3.81h57.11Z"/>
        <path class="cls-2" d="M1056.67,230.93c7.88-.87,13-2.33,15.33-4.39,2.34-2.06,3.51-7.27,3.51-15.65v-99.2c0-7.91-1.15-13.08-3.45-15.52-2.3-2.43-7.43-3.94-15.39-4.52v-4.14h113.88l.73,31.9h-5.44c-1.82-9.83-4.54-16.18-8.16-19.08-3.63-2.89-11.72-4.34-24.28-4.34h-29.18c-3.15,0-5.09.53-5.83,1.58-.74,1.05-1.1,3.03-1.1,5.93v49.76h33.08c9.14,0,14.97-1.41,17.48-4.22,2.51-2.82,4.54-8.52,6.07-17.12h5.02v51.5h-5.02c-1.61-8.64-3.66-14.35-6.18-17.15-2.51-2.79-8.3-4.19-17.38-4.19h-33.08v55.21c0,4.43,1.34,7.04,4.03,7.84s10.75,1.2,24.17,1.2c14.53,0,25.26-1.65,32.18-4.95,6.92-3.3,13.13-11.31,18.65-24.01h5.97l-9.73,37.67h-115.87v-4.14Z"/>
        <path class="cls-2" d="M1185.69,230.93c8.86-.94,14.55-3.03,17.06-6.26,2.51-3.23,3.77-10.72,3.77-22.47v-98.25l-2.93-3.59c-3.14-3.84-5.81-6.22-8.01-7.13-2.2-.91-5.5-1.43-9.89-1.58v-4.14h36.58l82.75,106.7v-74.11c0-12.19-1.75-20.12-5.23-23.8-2.3-2.38-7.4-3.93-15.28-4.65v-4.14h50.35v4.14c-8.16.87-13.61,2.94-16.33,6.21-2.72,3.27-4.08,10.74-4.08,22.43v117.38h-3.66l-94.83-122.28v86.81c0,12.18,1.71,20.12,5.13,23.82,2.23,2.39,7.22,4.03,14.97,4.89v4.14h-50.35v-4.14Z"/>
        <path class="cls-2" d="M1340.34,87.53h121.21l1.15,37.89h-5.13c-2.51-11.91-5.7-19.65-9.58-23.25-3.87-3.59-12.02-5.39-24.44-5.39h-11.93v114.11c0,8.59,1.29,13.92,3.87,15.97,2.58,2.06,8.23,3.41,16.96,4.06v4.14h-62.49v-4.14c9.07-.72,14.72-2.27,16.96-4.66,2.23-2.38,3.35-8.38,3.35-17.99v-111.5h-12.04c-11.86,0-19.94,1.78-24.23,5.33-4.29,3.56-7.52,11.32-9.68,23.3h-5.23l1.26-37.89Z"/>
        <path class="cls-2" d="M598.7,284.51c8.16,2.4,12.73,3.59,13.71,3.59,2.02,0,3.94-.58,5.76-1.74,1.81-1.16,3.07-2.98,3.77-5.44h4.5l1.99,50.09h-4.92c-2.86-9.95-6.59-17.97-11.2-24.06-8.79-11.47-20.62-17.2-35.48-17.2s-27.27,6.17-36.79,18.51c-9.52,12.34-14.29,29.33-14.29,50.96,0,19.89,5.01,35.77,15.02,47.64,10.01,11.87,22.7,17.8,38.05,17.8,11.1,0,21.32-2.76,30.67-8.28,5.37-3.12,11.27-7.84,17.69-14.16l3.98,4.14c-4.75,6.24-10.64,11.72-17.69,16.44-12,7.99-25.02,11.98-39.04,11.98-23.03,0-41.31-7.66-54.85-22.98-12.49-14.15-18.74-31.83-18.74-53.03s6.59-39.92,19.78-54.66c13.89-15.46,31.96-23.19,54.22-23.19,7.75,0,15.7,1.2,23.87,3.59Z"/>
        <path class="cls-2" d="M639.71,431.07v-4.14c5.51-.65,9.65-2.8,12.4-6.47,2.76-3.67,7.48-13.71,14.17-30.11l44.66-109.44h4.27l53.41,126.42c3.56,8.38,6.4,13.55,8.53,15.54,2.13,1.99,5.7,3.34,10.73,4.06v4.14h-54.51v-4.14c6.26-.58,10.3-1.28,12.12-2.11,1.81-.83,2.72-2.87,2.72-6.12,0-1.08-.35-3-1.05-5.74-.7-2.75-1.67-5.63-2.93-8.67l-8.58-21.45h-56.5c-5.57,14.59-8.89,23.49-9.97,26.71-1.08,3.22-1.62,5.76-1.62,7.64,0,3.76,1.46,6.36,4.39,7.8,1.81.87,5.22,1.52,10.24,1.95v4.14h-42.48ZM732.03,373.8l-24.57-61.41-24.68,61.41h49.25Z"/>
        <path class="cls-2" d="M792.88,426.93c8.16-.79,13.26-2.47,15.28-5.04,2.02-2.56,3.04-8.43,3.04-17.61v-96.58c0-7.77-1.13-12.88-3.4-15.35-2.27-2.47-7.24-4.03-14.92-4.68v-4.14h56.52c18.14,0,32.03,3.67,41.66,11,9.63,7.33,14.44,16.99,14.44,28.96,0,15.17-5.34,26.17-16.02,32.99-10.68,6.82-24.04,10.24-40.09,10.24-2.3,0-5.25-.05-8.84-.16-3.6-.11-6.26-.16-8.01-.16v40.51c0,8.38,1.24,13.65,3.72,15.81,2.48,2.17,8.01,3.57,16.59,4.22v4.14h-59.98v-4.14ZM865.21,295.94c-6.07-2.76-13.75-4.14-23.03-4.14-4.4,0-7.1.45-8.11,1.36-1.01.91-1.52,2.92-1.52,6.04v58.14c3.84.36,6.35.58,7.54.65,1.19.07,2.34.11,3.45.11,9.84,0,17.58-1.45,23.24-4.36,10.26-5.3,15.39-15.21,15.39-29.73,0-13.65-5.65-23.01-16.96-28.09Z"/>
        <path class="cls-2" d="M910.18,426.93c8.72-.65,14.37-2,16.96-4.06,2.58-2.06,3.87-7.38,3.87-15.97v-99.2c0-8.2-1.29-13.48-3.87-15.84-2.58-2.36-8.23-3.76-16.96-4.19v-4.14h63.43v4.14c-8.72.44-14.38,1.83-16.96,4.19-2.58,2.36-3.87,7.64-3.87,15.84v99.2c0,8.59,1.29,13.92,3.87,15.97,2.58,2.06,8.23,3.41,16.96,4.06v4.14h-63.43v-4.14Z"/>
        <path class="cls-2" d="M980.37,283.53h121.21l1.15,37.89h-5.13c-2.51-11.91-5.71-19.65-9.58-23.25-3.87-3.59-12.02-5.39-24.44-5.39h-11.93v114.11c0,8.59,1.29,13.92,3.87,15.97,2.58,2.06,8.23,3.41,16.96,4.06v4.14h-62.49v-4.14c9.07-.72,14.72-2.27,16.96-4.66,2.23-2.38,3.35-8.38,3.35-17.99v-111.5h-12.04c-11.86,0-19.94,1.78-24.23,5.33-4.29,3.56-7.52,11.32-9.68,23.3h-5.23l1.26-37.89Z"/>
        <path class="cls-2" d="M1091.29,431.07v-4.14c5.51-.65,9.65-2.8,12.4-6.47,2.76-3.67,7.48-13.71,14.17-30.11l44.66-109.44h4.27l53.41,126.42c3.56,8.38,6.4,13.55,8.53,15.54,2.13,1.99,5.7,3.34,10.73,4.06v4.14h-54.51v-4.14c6.26-.58,10.3-1.28,12.12-2.11,1.81-.83,2.72-2.87,2.72-6.12,0-1.08-.35-3-1.05-5.74-.7-2.75-1.67-5.63-2.93-8.67l-8.58-21.45h-56.5c-5.57,14.59-8.89,23.49-9.97,26.71-1.08,3.22-1.62,5.76-1.62,7.64,0,3.76,1.46,6.36,4.39,7.8,1.81.87,5.22,1.52,10.24,1.95v4.14h-42.48ZM1183.61,373.8l-24.57-61.41-24.68,61.41h49.25Z"/>
        <path class="cls-2" d="M1243.42,426.93c7.88-.87,13-2.33,15.33-4.39,2.34-2.06,3.51-7.27,3.51-15.65v-99.2c0-7.91-1.15-13.08-3.45-15.52-2.3-2.43-7.43-3.94-15.39-4.52v-4.14h60.5v4.14c-7.89.44-13.17,1.78-15.86,4.03-2.69,2.25-4.03,7.08-4.03,14.48v107.14c0,2.47.4,4.41,1.21,5.83.8,1.42,2.57,2.3,5.29,2.67,1.61.22,3.3.36,5.08.44,1.78.07,5.12.11,10.01.11,19.07,0,31.96-1.63,38.67-4.9,6.71-3.27,13.21-11.61,19.49-25.04h5.45l-10.48,38.65h-115.33v-4.14Z"/>
      </g>
      <g>
        <path class="cls-1" d="M0,434.86h66.22c.98-74.32,1.96-148.63,2.94-222.95-23.06,15.45-46.11,30.9-69.17,46.36v176.59Z"/>
        <path class="cls-1" d="M103.75,434.86h135.89V0c-45.3,33.85-90.59,67.69-135.89,101.54v333.32Z"/>
        <path class="cls-1" d="M277.92,125.09v309.78h112.8v-234.65c-37.6-25.04-75.2-50.09-112.8-75.13Z"/>
      </g>
    </g>
  </g>
</svg>